<?xml version="1.0" encoding="iso-8859-1"?>
<!-- Uploaded to: SVG Repo, www.svgrepo.com, Generator: SVG Repo Mixer Tools -->
<svg height="800px" width="800px" version="1.1" id="Layer_1" xmlns="http://www.w3.org/2000/svg" xmlns:xlink="http://www.w3.org/1999/xlink" 
	 viewBox="0 0 512.003 512.003" xml:space="preserve">
<path style="fill:#547475;" d="M463.186,207.827c-14.934-24.105-31.555-45.08-48.421-61.905v-21.968
	c0-12.525-10.154-22.681-22.68-22.681h-34.084c-27.406,0-27.343,21.164-27.343,21.164v16.538H181.341v-16.538
	c0,0,0.063-21.164-27.344-21.164h-34.083c-12.528,0-22.681,10.156-22.681,22.681v21.968c-19.057,19.011-37.8,43.321-54.153,71.457
	c-48.085,82.727-57.313,167.084-20.613,188.416c27.13,15.77,71.758-7.344,112.616-53.871h3.129
	c10.921,14.374,28.19,23.661,47.634,23.661s36.715-9.288,47.634-23.661H279.1c10.92,14.374,28.19,23.661,47.634,23.661
	c19.444,0,36.713-9.288,47.634-23.661h2.551c40.857,46.527,85.485,69.641,112.616,53.871c34.81-20.234,28.298-97.172-13.501-175.638
	"/>
<path style="opacity:0.15;fill:#231F20;enable-background:new    ;" d="M110.763,154.054l-0.007-0.001c0,0,0.025-0.023,0.07-0.063
	c0.185-0.19,0.37-0.385,0.556-0.575c1.286-1.432,4.121-5.313,4.121-11.74v-22.151c0-7.496,3.652-14.122,9.257-18.252h-4.845
	c-12.528,0-22.681,10.156-22.681,22.681v21.968c-19.057,19.011-37.8,43.32-54.153,71.457
	c-48.085,82.727-57.313,167.084-20.613,188.416c7.523,4.373,16.395,5.746,26.155,4.468c-2.763-0.805-5.399-1.916-7.885-3.361
	c-36.7-21.332-27.472-105.688,20.613-188.416C76.345,192.687,93.35,171.975,110.763,154.054z"/>
<circle style="fill:#53CAF9;" cx="371.984" cy="180.762" r="12.97"/>
<circle style="fill:#EFBA00;" cx="371.984" cy="251.77" r="12.97"/>
<circle style="fill:#73C470;" cx="336.474" cy="216.26" r="12.969"/>
<circle style="fill:#F74848;" cx="407.494" cy="216.26" r="12.969"/>
<path style="fill:#B4CCCB;" d="M175.678,205.332h-23.65v-23.65c0-1.39-1.128-2.517-2.517-2.517h-16.829
	c-1.391,0-2.518,1.127-2.518,2.517v23.65h-23.651c-1.391,0-2.517,1.127-2.517,2.518v16.829c0,1.39,1.127,2.517,2.517,2.517h23.65
	v23.651c0,1.39,1.127,2.517,2.518,2.517h16.829c1.39,0,2.517-1.127,2.517-2.517v-23.651h23.65c1.39,0,2.517-1.127,2.517-2.517
	V207.85C178.195,206.459,177.067,205.332,175.678,205.332z"/>
<g>
	<circle style="fill:#8AACAD;" cx="326.73" cy="317.807" r="30.173"/>
	<circle style="fill:#8AACAD;" cx="184.657" cy="317.807" r="30.173"/>
	<path style="fill:#8AACAD;" d="M268.179,326.108h-24.36c-4.586,0-8.304-3.717-8.304-8.304c0-4.587,3.718-8.304,8.304-8.304h24.36
		c4.586,0,8.304,3.717,8.304,8.304C276.484,322.391,272.766,326.108,268.179,326.108z"/>
	<path style="fill:#8AACAD;" d="M281.466,138.976h-50.934v11.724c0,7.338,5.948,13.287,13.287,13.287h24.36
		c7.339,0,13.287-5.949,13.287-13.287V138.976z"/>
</g>
<g>
	<path style="opacity:0.15;fill:#231F20;enable-background:new    ;" d="M314.276,317.804c0-13.582,8.973-25.064,21.315-28.85
		c-2.801-0.858-5.775-1.323-8.858-1.323c-16.664,0-30.173,13.509-30.173,30.173c0,16.663,13.509,30.173,30.173,30.173
		c3.083,0,6.057-0.465,8.858-1.324C323.25,342.868,314.276,331.385,314.276,317.804z"/>
	<path style="opacity:0.15;fill:#231F20;enable-background:new    ;" d="M172.205,317.804c0-13.582,8.973-25.064,21.314-28.85
		c-2.8-0.858-5.774-1.323-8.857-1.323c-16.665,0-30.173,13.509-30.173,30.173c0,16.663,13.507,30.173,30.173,30.173
		c3.083,0,6.057-0.465,8.857-1.324C181.178,342.868,172.205,331.385,172.205,317.804z"/>
	<path style="opacity:0.15;fill:#231F20;enable-background:new    ;" d="M248.249,150.699v-11.725h-17.716v11.725
		c0,7.338,5.948,13.287,13.287,13.287h17.716C254.197,163.987,248.249,158.038,248.249,150.699z"/>
</g>
</svg>