<?xml version="1.0" encoding="iso-8859-1"?>
<!-- Uploaded to: SVG Repo, www.svgrepo.com, Generator: SVG Repo Mixer Tools -->
<svg height="800px" width="800px" version="1.1" id="Layer_1" xmlns="http://www.w3.org/2000/svg" xmlns:xlink="http://www.w3.org/1999/xlink" 
	 viewBox="0 0 511.999 511.999" xml:space="preserve">
<path style="fill:#3C695E;" d="M131.14,373.359c-7.34,7.343-17.104,11.388-27.484,11.388c-10.383,0-20.144-4.041-27.483-11.385
	c-15.154-15.156-15.156-39.817-0.001-54.97l89.952-89.953c31.689-31.688,31.689-83.25,0-114.937
	c-31.689-31.688-83.249-31.688-114.937,0c-0.001,0.001-0.004,0.004-0.006,0.007L6.209,158.476
	c-8.279,8.281-8.279,21.706,0.001,29.989c4.14,4.139,9.565,6.206,14.991,6.206s10.852-2.071,14.991-6.209l44.967-44.97
	c0.003-0.001,0.006-0.006,0.007-0.006c15.156-15.155,39.815-15.156,54.972-0.001s15.156,39.815,0,54.974l-89.952,89.949
	c-31.687,31.688-31.685,83.249,0,114.937c15.349,15.349,35.759,23.802,57.469,23.805c21.706,0,42.116-8.455,57.466-23.805
	c8.28-8.279,8.28-21.703,0.001-29.983C152.842,365.082,139.42,365.082,131.14,373.359z"/>
<path style="fill:#4D8777;" d="M480.948,213.447L361.015,93.513c-4.407-4.406-10.532-6.65-16.742-6.137
	c-6.212,0.513-11.88,3.733-15.504,8.804L128.879,376.028c-6.024,8.435-5.067,19.989,2.262,27.316l39.976,39.979
	c4.105,4.102,9.534,6.211,14.998,6.211c4.291,0,8.606-1.302,12.317-3.952l279.848-199.891c5.071-3.624,8.291-9.293,8.807-15.505
	C487.599,223.977,485.355,217.855,480.948,213.447z"/>
<path style="fill:#3C695E;" d="M487.086,230.187c0.513-6.211-1.731-12.332-6.139-16.741l-59.967-59.967L151.126,423.334l19.99,19.99
	c4.105,4.102,9.534,6.211,14.998,6.211c4.291,0,8.606-1.302,12.317-3.952l279.848-199.891
	C483.35,242.067,486.57,236.398,487.086,230.187z"/>
<path style="fill:#7BD9BF;" d="M480.949,93.515c-20.021-20.024-46.642-31.051-74.958-31.051c-28.317,0-54.938,11.026-74.959,31.049
	c-41.332,41.332-41.332,108.586,0,149.92c20.021,20.021,46.642,31.048,74.956,31.048c28.317,0,54.938-11.029,74.959-31.052
	c20.024-20.02,31.051-46.638,31.052-74.956C511.998,140.157,500.972,113.536,480.949,93.515z"/>
<path style="fill:#72C8B0;" d="M511.999,168.474c-0.001-28.316-11.028-54.936-31.051-74.958c0,0,0,0-0.001-0.001L331.031,243.433
	l0.001,0.001c20.021,20.021,46.642,31.048,74.956,31.048c28.317,0,54.938-11.029,74.959-31.052
	C500.972,223.41,511.998,196.792,511.999,168.474z"/>
<path style="fill:#3C695E;" d="M465.957,249.641c-5.428,0-10.852-2.069-14.994-6.212L331.032,123.496
	c-8.281-8.28-8.281-21.702-0.001-29.983c8.28-8.28,21.703-8.279,29.985,0l119.932,119.933c8.28,8.281,8.28,21.706,0,29.983
	C476.808,247.569,471.381,249.641,465.957,249.641z"/>
</svg>