<?xml version="1.0" encoding="utf-8"?>
<!-- Generator: Adobe Illustrator 25.0.0, SVG Export Plug-In . SVG Version: 6.00 Build 0)  -->
<svg version="1.1" id="Layer_1" xmlns="http://www.w3.org/2000/svg" xmlns:xlink="http://www.w3.org/1999/xlink" x="0px" y="0px"
	 viewBox="0 0 428 249" style="enable-background:new 0 0 428 249;" xml:space="preserve">
<g>
	<g>
		<g>
			<g>
				<path d="M220.8,76.6V0.1h24.3v75c0,7.6,1.6,9.8,5.9,9.8c4.6,0,5.8-2.1,5.8-9.8v-75h24.3v76.5c0,22.4-11.3,31.9-30.1,31.9
					C231.4,108.5,220.8,99,220.8,76.6z"/>
				<path d="M317.2,106.8h-23.9V0.1h30.1c21.7,0,30.3,8.6,30.3,26.7v18.8c0,17.9-8.6,28.5-30.3,28.5h-6.2V106.8z M317.2,52.9h4.9
					c4.7,0,7.1-2.7,7.1-7.9V27.8c0-5-2.2-7.4-7-7.4h-5L317.2,52.9L317.2,52.9z"/>
				<path d="M364.2,106.8V0.1H386l18.8,52.2l1.6,5.9l-0.4-9.6V0.1h21.9v106.7h-21.3l-19.3-52.2l-1.8-6.1l0.6,10.5v47.7L364.2,106.8
					L364.2,106.8z"/>
			</g>
		</g>
	</g>
	<g>
		<g>
			<g>
				<path d="M90.2,0.1v248.4H53.9v-182l-1,0.9c-16,15.1-33.8,28.4-52.8,39.6V66c10-7,19.5-14.7,28.4-23c13.8-12.9,26.3-27.3,37-42.9
					L90.2,0.1L90.2,0.1z"/>
				<path d="M193.9,66v41.1c-19.1-11.2-36.8-24.6-52.8-39.6l-1-0.9v182h-36.3V0.1h24.8c10.8,15.6,23.2,30,37,42.9
					C174.4,51.3,183.9,59,193.9,66z"/>
			</g>
		</g>
	</g>
	<g>
		<path d="M225.1,156.1v-20.3h5.2v20c0,2.8,0.7,3.8,2.6,3.8s2.6-1,2.6-3.8v-20h5.1v20.3c0,5.9-2.7,8.5-7.7,8.5
			C227.7,164.6,225.1,162,225.1,156.1z"/>
		<path d="M244.4,164.2v-28.3h4.5l6.5,16l1,3.2l-0.3-3.8v-15.3h4.6v28.3h-4.4l-6.7-16.1l-1-3.4l0.3,4.2v15.3L244.4,164.2
			L244.4,164.2z"/>
		<path d="M264.2,159.3h3.3v-18.8h-3.3v-4.7h11.5v4.7h-3.2v18.8h3.2v4.8h-11.5V159.3z"/>
		<path d="M277.8,135.8h5.2l3.4,16.9l0.3,4.1l0.3-4.1l3.3-16.9h5.2l-6.2,28.3h-5.1L277.8,135.8z"/>
		<path d="M298,164.2v-28.3h13.2v4.6h-8.2v7h7.2v4.7h-7.2v7.2h8.4v4.8L298,164.2L298,164.2z"/>
		<path d="M319.6,164.2h-4.9v-28.3h7.6c5.3,0,7.5,2.1,7.5,6.8v3.4c0,2.8-1,4.2-3,5c2.1,0.7,2.7,2.1,2.7,4.9v6.4
			c0,0.8,0.3,1.4,0.8,1.9H325c-0.4-0.3-0.5-1-0.5-1.9v-6.1c0-2-0.5-2.8-2.7-2.8h-2.1L319.6,164.2L319.6,164.2z M319.6,148.8h2.4
			c2,0,2.8-0.9,2.8-2.8v-3.2c0-1.9-0.8-2.7-2.8-2.7h-2.4V148.8z"/>
		<path d="M332.7,157.2v-3.8h5.3v3.7c0,1.8,0.6,2.9,2.7,2.9c1.9,0,2.5-1.1,2.5-2.7v-1.5c0-0.8-0.2-1.4-0.6-2
			c-0.8-1.1-2.3-1.9-3.9-2.6c-0.9-0.5-1.8-1-2.7-1.6c-1.7-1.2-3-3-3-5.9v-1.2c0-4.4,2.4-7,7.5-7c5.1,0,7.4,2.5,7.4,6.6v3.1h-5v-2.8
			c0-1.9-0.7-2.7-2.4-2.7c-1.7,0-2.4,1.1-2.4,2.8v0.8c0,0.8,0.2,1.3,0.6,1.8c0.8,1,2.3,1.7,3.8,2.5c0.9,0.5,1.8,1,2.7,1.6
			c1.7,1.2,3,3,3,6v2.2c0,4.5-2.6,7.2-7.7,7.2C334.7,164.6,332.7,162,332.7,157.2z"/>
		<path d="M350.7,159.3h3.3v-18.8h-3.3v-4.7h11.5v4.7h-3.2v18.8h3.2v4.8h-11.5V159.3z"/>
		<path d="M372.8,135.8c1.7,0,3.1,0.3,4.4,0.9c2.5,1.1,4.1,3.5,4.1,7.5v11.5c0,2-0.4,3.6-1.1,4.8c-1.4,2.5-4.1,3.6-7.4,3.6h-7.3
			v-28.3H372.8z M370.6,159.6h2c2.2,0,3.4-1.3,3.4-4.4v-10.7c0-3.1-1.3-4.4-3.5-4.4h-1.9V159.6z"/>
		<path d="M388.8,160l-0.8,4.2h-5.1l6.3-28.3h5.1l6.4,28.3h-5.1l-0.8-4.2H388.8z M393.9,155.5L392,146l-0.3-4l-0.3,4l-1.8,9.5H393.9
			z"/>
		<path d="M410.5,135.8c1.7,0,3.1,0.3,4.4,0.9c2.5,1.1,4.1,3.5,4.1,7.5v11.5c0,2-0.4,3.6-1.1,4.8c-1.4,2.5-4.1,3.6-7.4,3.6h-7.3
			v-28.3H410.5z M408.3,159.6h2c2.2,0,3.4-1.3,3.4-4.4v-10.7c0-3.1-1.3-4.4-3.5-4.4h-1.9V159.6z"/>
		<path d="M230.3,206.3h-5V178h7.5c5.5,0,7.9,2.1,7.9,7.1v4.8c0,4.7-2.3,7.5-7.8,7.5h-2.5V206.3z M230.3,193h2.3c2,0,3-1.1,3-3.1
			v-4.5c0-2.2-0.9-3-3-3h-2.3V193z"/>
		<path d="M248.8,206.3h-4.9V178h7.6c5.3,0,7.5,2.1,7.5,6.8v3.4c0,2.8-1,4.2-3,5c2.1,0.7,2.7,2.1,2.7,4.9v6.4c0,0.8,0.3,1.4,0.8,1.9
			h-5.4c-0.4-0.3-0.5-1-0.5-1.9v-6.1c0-2-0.5-2.8-2.7-2.8h-2.1L248.8,206.3L248.8,206.3z M248.8,191h2.4c2,0,2.8-0.9,2.8-2.8V185
			c0-1.9-0.8-2.7-2.9-2.7h-2.4V191z"/>
		<path d="M261.8,201.5h3.3v-18.8h-3.3V178h11.5v4.7H270v18.8h3.2v4.8h-11.5V201.5z"/>
		<path d="M275.4,178h5.2l3.4,16.9l0.3,4.1l0.3-4.1l3.3-16.9h5.2l-6.2,28.3h-5.1L275.4,178z"/>
		<path d="M297.6,202.1l-0.8,4.2h-5.1L298,178h5.1l6.4,28.3h-5.1l-0.8-4.2H297.6z M302.8,197.7l-1.9-9.5l-0.3-4l-0.3,4l-1.8,9.5
			H302.8z"/>
		<path d="M319.3,178c1.7,0,3.1,0.3,4.4,0.9c2.5,1.1,4.1,3.5,4.1,7.5v11.5c0,2-0.4,3.6-1.1,4.8c-1.4,2.5-4.1,3.6-7.4,3.6H312V178
			H319.3z M317.1,201.8h2c2.2,0,3.4-1.3,3.4-4.4v-10.7c0-3.1-1.3-4.4-3.5-4.4h-1.9V201.8z"/>
		<path d="M335.3,202.1l-0.8,4.2h-5.1l6.3-28.3h5.1l6.4,28.3h-5.1l-0.8-4.2H335.3z M340.5,197.7l-1.9-9.5l-0.3-4l-0.3,4l-1.8,9.5
			H340.5z"/>
		<path d="M232.6,220.1c1.7,0,3.1,0.3,4.4,0.9c2.5,1.1,4.1,3.5,4.1,7.5V240c0,2-0.4,3.6-1.1,4.8c-1.4,2.5-4.1,3.6-7.4,3.6h-7.3
			v-28.3H232.6z M230.4,244h2c2.2,0,3.4-1.3,3.4-4.4v-10.7c0-3.1-1.3-4.4-3.5-4.4h-1.9V244z"/>
		<path d="M244.8,248.5v-28.3H258v4.6h-8.2v7h7.2v4.7h-7.2v7.2h8.4v4.8L244.8,248.5L244.8,248.5z"/>
		<path d="M261.4,220.1h5.2v23.2h7.6v5.1h-12.8V220.1z"/>
		<path d="M286,248.5v-28.3h4.5l6.5,16l1,3.2l-0.3-3.8v-15.3h4.6v28.3h-4.4l-6.7-16.1l-1-3.4l0.3,4.2v15.3L286,248.5L286,248.5z"/>
		<path d="M306,240.3v-11.9c0-5.8,3.2-8.6,8.2-8.6s8.2,2.8,8.2,8.6v11.9c0,5.9-3.2,8.6-8.2,8.6C309.1,248.9,306,246.3,306,240.3z
			 M317.1,239.9v-11.3c0-3-0.8-4.3-2.9-4.3c-2.1,0-2.9,1.4-2.9,4.3v11.3c0,2.9,0.8,4.3,2.9,4.3C316.3,244.2,317.1,242.8,317.1,239.9
			z"/>
		<path d="M331,248.5h-4.9v-28.3h7.6c5.3,0,7.5,2.1,7.5,6.8v3.4c0,2.8-1,4.2-3,5c2.1,0.7,2.7,2.1,2.7,4.9v6.4c0,0.8,0.3,1.4,0.8,1.9
			h-5.4c-0.4-0.3-0.5-1-0.5-1.9v-6.1c0-2-0.5-2.8-2.7-2.8H331L331,248.5L331,248.5z M331,233.1h2.4c2,0,2.8-0.9,2.8-2.8v-3.2
			c0-1.9-0.8-2.7-2.8-2.7H331V233.1z"/>
		<path d="M353.1,248.5H348v-23.7h-4.7v-4.7h14.5v4.7h-4.7L353.1,248.5L353.1,248.5z"/>
		<path d="M360.8,248.5v-28.3h13.2v4.6h-8.2v7h7.2v4.7h-7.2v7.2h8.4v4.8L360.8,248.5L360.8,248.5z"/>
	</g>
</g>
</svg>
